<svg version="1.1" id="Layer_1" xmlns="http://www.w3.org/2000/svg" xmlns:xlink="http://www.w3.org/1999/xlink" x="0px" y="0px"
	 width="100%" viewBox="0 0 512 512" enable-background="new 0 0 512 512" xml:space="preserve">
<path fill="#00BCD4" opacity="1.000000" stroke="none" 
	d="
M331.000000,513.000000 
	C220.693466,513.000000 110.886925,513.000000 1.040193,513.000000 
	C1.040193,342.401764 1.040193,171.803528 1.040193,1.102647 
	C171.556549,1.102647 342.113159,1.102647 512.834900,1.102647 
	C512.834900,171.666534 512.834900,342.333252 512.834900,513.000000 
	C452.470184,513.000000 391.985077,513.000000 331.000000,513.000000 
M278.542633,96.948105 
	C267.006226,92.390755 255.098938,89.864799 242.632507,89.936455 
	C223.811432,90.044647 204.989212,89.993927 186.167587,89.957588 
	C160.190109,89.907433 137.695450,98.628357 119.028915,116.766624 
	C99.992287,135.264496 90.029877,157.757996 89.977501,184.423965 
	C89.920914,213.239365 89.961853,242.054993 89.966370,270.870514 
	C89.967834,280.238159 93.580666,283.883026 102.878975,283.883911 
	C150.183075,283.888458 197.487228,283.917877 244.791168,283.835663 
	C249.424728,283.827637 254.136978,283.536774 258.677795,282.670319 
	C313.177795,272.270691 347.392151,221.817383 335.584381,165.686981 
	C328.772400,133.304947 309.262054,110.789894 278.542633,96.948105 
M424.042511,369.500000 
	C424.042511,355.169159 423.958405,340.837708 424.069672,326.507721 
	C424.155640,315.433746 422.631042,304.599030 418.819946,294.242676 
	C407.624298,263.819366 386.442017,243.676071 355.509979,233.942429 
	C347.321014,231.365555 340.669159,235.419785 340.006317,242.945786 
	C339.511963,248.558182 343.031250,252.621765 350.425751,254.976852 
	C382.103790,265.066010 402.283875,292.568390 402.350250,325.847076 
	C402.397430,349.509949 402.366852,373.172943 402.351624,396.835907 
	C402.350494,398.588379 402.192993,400.340698 402.094849,402.368134 
	C399.840607,402.368134 398.188965,402.368195 396.537323,402.368134 
	C354.543915,402.366486 312.549469,402.510620 270.558044,402.220306 
	C263.521759,402.171661 256.264069,401.034180 249.509918,399.040466 
	C220.719864,390.542023 199.953110,364.528046 198.148422,334.500000 
	C197.614532,325.616577 198.975159,316.623627 199.392166,307.677368 
	C199.736145,300.297150 194.909058,295.548767 187.763687,296.113739 
	C182.494156,296.530426 179.100800,300.076935 177.921600,306.974091 
	C174.788330,325.300629 175.434387,343.380890 181.760345,361.061157 
	C195.144730,398.468719 229.411179,423.049438 265.749146,423.791412 
	C314.721039,424.791351 363.728729,424.054626 412.721039,424.026611 
	C419.978546,424.022461 424.015411,419.856354 424.032532,412.493378 
	C424.065094,398.495667 424.042328,384.497803 424.042511,369.500000 
M302.099182,278.803467 
	C295.361755,278.734406 292.067688,280.520966 289.957642,286.105682 
	C279.167114,314.665955 268.437836,343.249634 257.800171,371.867126 
	C255.676788,377.579468 258.309692,383.412354 263.494629,385.549500 
	C268.995300,387.816803 275.195099,385.438812 277.699127,379.820038 
	C279.386414,376.033905 280.386017,371.925476 282.244415,368.239105 
	C282.999481,366.741394 285.153870,365.159698 286.779877,365.035645 
	C292.075165,364.631500 297.421234,364.822998 302.746155,364.899414 
	C307.383850,364.965973 313.124603,363.580231 316.343414,365.794189 
	C319.531403,367.986908 320.229309,373.857391 321.922272,378.153046 
	C324.619781,384.997711 330.352478,387.992920 336.503998,385.681549 
	C342.279144,383.511627 344.668427,377.406677 342.143372,370.641205 
	C331.763916,342.830658 321.454498,314.991791 310.699707,287.326477 
	C309.418732,284.031372 305.564453,281.736664 302.099182,278.803467 
z"/>
<path fill="#FEFFFF" opacity="1.000000" stroke="none" 
	d="
M278.913696,97.051010 
	C309.262054,110.789894 328.772400,133.304947 335.584381,165.686981 
	C347.392151,221.817383 313.177795,272.270691 258.677795,282.670319 
	C254.136978,283.536774 249.424728,283.827637 244.791168,283.835663 
	C197.487228,283.917877 150.183075,283.888458 102.878975,283.883911 
	C93.580666,283.883026 89.967834,280.238159 89.966370,270.870514 
	C89.961853,242.054993 89.920914,213.239365 89.977501,184.423965 
	C90.029877,157.757996 99.992287,135.264496 119.028915,116.766624 
	C137.695450,98.628357 160.190109,89.907433 186.167587,89.957588 
	C204.989212,89.993927 223.811432,90.044647 242.632507,89.936455 
	C255.098938,89.864799 267.006226,92.390755 278.913696,97.051010 
M234.521561,149.120758 
	C231.421692,149.120758 228.321823,149.120758 224.792770,149.120758 
	C224.792770,146.413345 224.872421,144.438446 224.771347,142.472824 
	C224.660797,140.323151 224.580963,138.140472 224.140289,136.045242 
	C222.945892,130.366409 218.833054,127.442505 212.906952,127.836594 
	C207.417252,128.201645 203.702026,131.814407 203.257614,137.393448 
	C203.072861,139.712524 202.946213,142.076981 203.186096,144.379852 
	C203.576416,148.126526 202.144608,149.298019 198.406815,149.207092 
	C192.100006,149.053665 185.756790,149.175659 179.472458,149.701981 
	C174.333038,150.132416 171.636322,153.712708 170.731293,158.582932 
	C169.942703,162.826630 172.444855,167.933990 176.958328,169.409378 
	C180.597687,170.599030 181.269714,172.845551 181.630722,175.914154 
	C183.179596,189.079941 188.428284,200.794739 195.755600,211.686966 
	C196.734955,213.142792 197.636398,214.651031 198.761078,216.431213 
	C194.276550,219.941071 190.183212,223.054398 186.190765,226.292130 
	C181.067032,230.447342 179.974197,236.990891 183.495895,241.747177 
	C187.137192,246.664963 193.499146,247.525711 198.991318,243.577026 
	C203.971359,239.996582 208.759293,236.148926 213.758514,232.322174 
	C218.740036,236.170547 223.658890,240.117676 228.737564,243.847183 
	C232.769974,246.808365 237.180038,246.887482 241.358505,244.222458 
	C245.498138,241.582214 247.004959,237.293961 245.532211,232.895294 
	C244.562073,229.997772 242.060425,227.399567 239.726837,225.222229 
	C236.264130,221.991379 232.342850,219.251999 228.646576,216.327011 
	C229.340271,215.063293 229.604279,214.452469 229.978775,213.919250 
	C238.311127,202.055008 244.530502,189.340454 246.098328,174.680939 
	C246.339996,172.421249 247.068298,170.679520 249.967865,169.774170 
	C254.785858,168.269775 257.455444,163.357071 256.946960,158.848465 
	C256.377045,153.794907 253.027939,150.234634 247.457779,149.535614 
	C243.517426,149.041138 239.490753,149.234482 234.521561,149.120758 
z"/>
<path fill="#FAFEFE" opacity="1.000000" stroke="none" 
	d="
M424.042511,370.000000 
	C424.042328,384.497803 424.065094,398.495667 424.032532,412.493378 
	C424.015411,419.856354 419.978546,424.022461 412.721039,424.026611 
	C363.728729,424.054626 314.721039,424.791351 265.749146,423.791412 
	C229.411179,423.049438 195.144730,398.468719 181.760345,361.061157 
	C175.434387,343.380890 174.788330,325.300629 177.921600,306.974091 
	C179.100800,300.076935 182.494156,296.530426 187.763687,296.113739 
	C194.909058,295.548767 199.736145,300.297150 199.392166,307.677368 
	C198.975159,316.623627 197.614532,325.616577 198.148422,334.500000 
	C199.953110,364.528046 220.719864,390.542023 249.509918,399.040466 
	C256.264069,401.034180 263.521759,402.171661 270.558044,402.220306 
	C312.549469,402.510620 354.543915,402.366486 396.537323,402.368134 
	C398.188965,402.368195 399.840607,402.368134 402.094849,402.368134 
	C402.192993,400.340698 402.350494,398.588379 402.351624,396.835907 
	C402.366852,373.172943 402.397430,349.509949 402.350250,325.847076 
	C402.283875,292.568390 382.103790,265.066010 350.425751,254.976852 
	C343.031250,252.621765 339.511963,248.558182 340.006317,242.945786 
	C340.669159,235.419785 347.321014,231.365555 355.509979,233.942429 
	C386.442017,243.676071 407.624298,263.819366 418.819946,294.242676 
	C422.631042,304.599030 424.155640,315.433746 424.069672,326.507721 
	C423.958405,340.837708 424.042511,355.169159 424.042511,370.000000 
z"/>
<path fill="#FBFEFE" opacity="1.000000" stroke="none" 
	d="
M302.501068,278.890869 
	C305.564453,281.736664 309.418732,284.031372 310.699707,287.326477 
	C321.454498,314.991791 331.763916,342.830658 342.143372,370.641205 
	C344.668427,377.406677 342.279144,383.511627 336.503998,385.681549 
	C330.352478,387.992920 324.619781,384.997711 321.922272,378.153046 
	C320.229309,373.857391 319.531403,367.986908 316.343414,365.794189 
	C313.124603,363.580231 307.383850,364.965973 302.746155,364.899414 
	C297.421234,364.822998 292.075165,364.631500 286.779877,365.035645 
	C285.153870,365.159698 282.999481,366.741394 282.244415,368.239105 
	C280.386017,371.925476 279.386414,376.033905 277.699127,379.820038 
	C275.195099,385.438812 268.995300,387.816803 263.494629,385.549500 
	C258.309692,383.412354 255.676788,377.579468 257.800171,371.867126 
	C268.437836,343.249634 279.167114,314.665955 289.957642,286.105682 
	C292.067688,280.520966 295.361755,278.734406 302.501068,278.890869 
M299.243011,322.337891 
	C296.678406,329.192902 294.113800,336.047943 291.444275,343.183350 
	C297.736694,343.183350 302.940796,343.183350 308.863739,343.183350 
	C306.606628,337.203308 304.654236,331.795380 302.502197,326.468109 
	C301.831848,324.808624 300.621277,323.367340 299.243011,322.337891 
z"/>
<path fill="#04BDD5" opacity="1.000000" stroke="none" 
	d="
M235.012085,149.120758 
	C239.490753,149.234482 243.517426,149.041138 247.457779,149.535614 
	C253.027939,150.234634 256.377045,153.794907 256.946960,158.848465 
	C257.455444,163.357071 254.785858,168.269775 249.967865,169.774170 
	C247.068298,170.679520 246.339996,172.421249 246.098328,174.680939 
	C244.530502,189.340454 238.311127,202.055008 229.978775,213.919250 
	C229.604279,214.452469 229.340271,215.063293 228.646576,216.327011 
	C232.342850,219.251999 236.264130,221.991379 239.726837,225.222229 
	C242.060425,227.399567 244.562073,229.997772 245.532211,232.895294 
	C247.004959,237.293961 245.498138,241.582214 241.358505,244.222458 
	C237.180038,246.887482 232.769974,246.808365 228.737564,243.847183 
	C223.658890,240.117676 218.740036,236.170547 213.758514,232.322174 
	C208.759293,236.148926 203.971359,239.996582 198.991318,243.577026 
	C193.499146,247.525711 187.137192,246.664963 183.495895,241.747177 
	C179.974197,236.990891 181.067032,230.447342 186.190765,226.292130 
	C190.183212,223.054398 194.276550,219.941071 198.761078,216.431213 
	C197.636398,214.651031 196.734955,213.142792 195.755600,211.686966 
	C188.428284,200.794739 183.179596,189.079941 181.630722,175.914154 
	C181.269714,172.845551 180.597687,170.599030 176.958328,169.409378 
	C172.444855,167.933990 169.942703,162.826630 170.731293,158.582932 
	C171.636322,153.712708 174.333038,150.132416 179.472458,149.701981 
	C185.756790,149.175659 192.100006,149.053665 198.406815,149.207092 
	C202.144608,149.298019 203.576416,148.126526 203.186096,144.379852 
	C202.946213,142.076981 203.072861,139.712524 203.257614,137.393448 
	C203.702026,131.814407 207.417252,128.201645 212.906952,127.836594 
	C218.833054,127.442505 222.945892,130.366409 224.140289,136.045242 
	C224.580963,138.140472 224.660797,140.323151 224.771347,142.472824 
	C224.872421,144.438446 224.792770,146.413345 224.792770,149.120758 
	C228.321823,149.120758 231.421692,149.120758 235.012085,149.120758 
M206.847305,186.699295 
	C208.947556,190.647263 211.047806,194.595230 213.644302,199.476028 
	C219.554611,189.748398 223.968979,181.136322 224.223923,170.787323 
	C216.846100,170.787323 210.127014,170.787323 202.278763,170.787323 
	C203.820587,176.260834 205.190262,181.123199 206.847305,186.699295 
z"/>
<path fill="#15C2D8" opacity="1.000000" stroke="none" 
	d="
M299.450500,322.082031 
	C300.621277,323.367340 301.831848,324.808624 302.502197,326.468109 
	C304.654236,331.795380 306.606628,337.203308 308.863739,343.183350 
	C302.940796,343.183350 297.736694,343.183350 291.444275,343.183350 
	C294.113800,336.047943 296.678406,329.192902 299.450500,322.082031 
z"/>
<path fill="#F1FBFD" opacity="1.000000" stroke="none" 
	d="
M206.703613,186.342438 
	C205.190262,181.123199 203.820587,176.260834 202.278763,170.787323 
	C210.127014,170.787323 216.846100,170.787323 224.223923,170.787323 
	C223.968979,181.136322 219.554611,189.748398 213.644302,199.476028 
	C211.047806,194.595230 208.947556,190.647263 206.703613,186.342438 
z"/>
</svg>